<svg xmlns="http://www.w3.org/2000/svg" version="1.1" xlink="http://www.w3.org/1999/xlink" width="100%" height="100%" preserveAspectRatio="xMidYMid meet" viewBox="0 0 300.0000305175781 43.02058792114258" overflow="visible"><defs id="SvgjsDefs27269"></defs><g id="SvgjsG27270" transform="scale(0.6493506493506493)" opacity="1"><g id="SvgjsG27271" class="text" transform="translate(231, 32.08) scale(1)" light-content="false" fill="#ffffff"><path d="M-201.26 -30.78C-201.26 -31.65 -201.64 -32.08 -202.41 -32.08C-203.11 -32.08 -203.62 -31.8 -203.95 -31.23L-216.06 -12.65L-228.21 -31.23C-228.54 -31.8 -229.04 -32.08 -229.7 -32.08C-230.57 -32.08 -231 -31.65 -231 -30.78L-231 -1.3C-231 -0.43 -230.57 0 -229.7 0C-228.84 0 -228.41 -0.43 -228.41 -1.3L-228.41 -26.85L-217.6 -10.36C-217.24 -9.8 -216.75 -9.51 -216.16 -9.51C-215.46 -9.51 -214.94 -9.8 -214.61 -10.36L-203.85 -26.7L-203.85 -1.3C-203.85 -0.43 -203.42 0 -202.56 0C-201.69 0 -201.26 -0.43 -201.26 -1.3Z M-190.01 -2.47C-188.34 -0.82 -185.72 0 -182.14 0L-176.16 0C-172.54 0 -169.91 -0.82 -168.26 -2.47C-166.62 -4.11 -165.8 -6.74 -165.8 -10.36L-165.8 -30.78C-165.8 -31.15 -165.91 -31.46 -166.15 -31.7C-166.38 -31.95 -166.69 -32.08 -167.09 -32.08C-167.46 -32.08 -167.76 -31.95 -168.01 -31.7C-168.26 -31.46 -168.39 -31.15 -168.39 -30.78L-168.39 -10.36C-168.39 -8.43 -168.64 -6.91 -169.13 -5.78C-169.63 -4.65 -170.44 -3.84 -171.55 -3.34C-172.66 -2.84 -174.2 -2.59 -176.16 -2.59L-182.14 -2.59C-184.99 -2.59 -187 -3.17 -188.16 -4.33C-189.32 -5.5 -189.91 -7.5 -189.91 -10.36L-189.91 -30.78C-189.91 -31.15 -190.02 -31.46 -190.25 -31.7C-190.49 -31.95 -190.8 -32.08 -191.2 -32.08C-191.57 -32.08 -191.87 -31.95 -192.12 -31.7C-192.37 -31.46 -192.5 -31.15 -192.5 -30.78L-192.5 -10.36C-192.5 -6.74 -191.67 -4.11 -190.01 -2.47Z M-134.62 -0.95C-134.62 -1.18 -134.7 -1.43 -134.86 -1.69L-142.24 -13.45C-140.01 -13.75 -138.33 -14.61 -137.18 -16.04C-136.03 -17.47 -135.46 -19.44 -135.46 -21.97L-135.46 -23.46C-135.46 -26.28 -136.19 -28.43 -137.65 -29.89C-139.11 -31.35 -141.26 -32.08 -144.08 -32.08L-155.74 -32.08C-156.6 -32.08 -157.03 -31.65 -157.03 -30.78L-157.03 -1.3C-157.03 -0.43 -156.6 0 -155.74 0C-154.87 0 -154.44 -0.43 -154.44 -1.3L-154.44 -13.35L-145.27 -13.35L-137.06 -0.35C-136.82 0.08 -136.49 0.3 -136.06 0.3C-135.83 0.3 -135.58 0.22 -135.31 0.05C-134.85 -0.22 -134.62 -0.55 -134.62 -0.95ZM-154.44 -15.94L-154.44 -29.49L-144.08 -29.49C-141.95 -29.49 -140.42 -29.01 -139.47 -28.04C-138.53 -27.08 -138.05 -25.55 -138.05 -23.46L-138.05 -21.97C-138.05 -19.84 -138.53 -18.31 -139.47 -17.36C-140.42 -16.41 -141.95 -15.94 -144.08 -15.94Z M-102.89 -1.2C-102.89 -1.39 -102.94 -1.61 -103.03 -1.84L-115.39 -31.08C-115.69 -31.75 -116.17 -32.08 -116.83 -32.08L-116.93 -32.08C-117.66 -32.08 -118.16 -31.75 -118.43 -31.08L-130.78 -1.84C-130.85 -1.71 -130.88 -1.51 -130.88 -1.25C-130.88 -0.71 -130.61 -0.35 -130.08 -0.15C-129.82 -0.05 -129.6 0 -129.43 0C-128.94 0 -128.57 -0.27 -128.34 -0.8L-125 -8.67L-108.86 -8.67L-108.71 -8.67L-105.38 -0.8C-105.18 -0.27 -104.84 0 -104.38 0C-104.15 0 -103.93 -0.05 -103.73 -0.15C-103.17 -0.42 -102.89 -0.76 -102.89 -1.2ZM-123.96 -11.26L-116.88 -27.99L-109.81 -11.26Z M-97.01 -1.3C-97.01 -0.43 -96.58 0 -95.71 0L-83.71 0C-79.56 0 -76.54 -0.95 -74.67 -2.84C-72.79 -4.73 -71.85 -7.74 -71.85 -11.86L-71.85 -20.22C-71.85 -24.34 -72.8 -27.35 -74.69 -29.24C-76.58 -31.13 -79.59 -32.08 -83.71 -32.08L-95.71 -32.08C-96.58 -32.08 -97.01 -31.65 -97.01 -30.78ZM-83.71 -2.59L-94.42 -2.59L-94.42 -29.49L-83.71 -29.49C-81.42 -29.49 -79.6 -29.19 -78.25 -28.59C-76.91 -27.99 -75.94 -27.02 -75.34 -25.68C-74.74 -24.33 -74.44 -22.51 -74.44 -20.22L-74.44 -11.86C-74.44 -9.56 -74.74 -7.75 -75.34 -6.4C-75.94 -5.06 -76.91 -4.08 -78.25 -3.49C-79.6 -2.89 -81.42 -2.59 -83.71 -2.59Z M-48.94 -2.49C-47.28 -0.83 -44.66 0 -41.07 0L-35.09 0C-31.8 0 -29.42 -0.74 -27.94 -2.22C-26.47 -3.69 -25.73 -6.08 -25.73 -9.36L-25.73 -13.8C-25.73 -14.66 -26.16 -15.09 -27.02 -15.09L-33.8 -15.14C-34.66 -15.14 -35.09 -14.71 -35.09 -13.85C-35.09 -12.98 -34.66 -12.55 -33.8 -12.55L-28.32 -12.5L-28.32 -9.36C-28.32 -7.64 -28.53 -6.28 -28.94 -5.3C-29.36 -4.33 -30.05 -3.63 -31.03 -3.21C-32.01 -2.8 -33.37 -2.59 -35.09 -2.59L-41.07 -2.59C-43.03 -2.59 -44.56 -2.84 -45.68 -3.34C-46.79 -3.84 -47.59 -4.64 -48.09 -5.75C-48.59 -6.87 -48.84 -8.4 -48.84 -10.36L-48.84 -21.72C-48.84 -23.68 -48.59 -25.21 -48.09 -26.33C-47.59 -27.44 -46.79 -28.24 -45.68 -28.74C-44.56 -29.24 -43.05 -29.49 -41.12 -29.49L-35.09 -29.49C-32.73 -29.49 -31.06 -29.08 -30.06 -28.27C-29.06 -27.45 -28.5 -26.03 -28.37 -24.01C-28.3 -23.15 -27.87 -22.71 -27.07 -22.71C-26.14 -22.71 -25.71 -23.15 -25.78 -24.01C-25.94 -26.83 -26.77 -28.88 -28.27 -30.16C-29.76 -31.44 -32.04 -32.08 -35.09 -32.08L-41.12 -32.08C-44.71 -32.08 -47.32 -31.26 -48.96 -29.61C-50.61 -27.97 -51.43 -25.34 -51.43 -21.72L-51.43 -10.36C-51.43 -6.77 -50.6 -4.15 -48.94 -2.49Z M7.05 -1.2C7.05 -1.39 7 -1.61 6.9 -1.84L-5.45 -31.08C-5.75 -31.75 -6.23 -32.08 -6.9 -32.08L-7 -32.08C-7.73 -32.08 -8.23 -31.75 -8.49 -31.08L-20.85 -1.84C-20.91 -1.71 -20.95 -1.51 -20.95 -1.25C-20.95 -0.71 -20.68 -0.35 -20.15 -0.15C-19.88 -0.05 -19.67 0 -19.5 0C-19 0 -18.64 -0.27 -18.41 -0.8L-15.07 -8.67L1.07 -8.67L1.22 -8.67L4.56 -0.8C4.76 -0.27 5.09 0 5.55 0C5.79 0 6 -0.05 6.2 -0.15C6.77 -0.42 7.05 -0.76 7.05 -1.2ZM-14.02 -11.26L-6.95 -27.99L0.12 -11.26Z M34.54 -1.2C34.54 -1.49 34.43 -1.78 34.2 -2.04L21.05 -18.33L32.2 -29.79C32.47 -30.12 32.6 -30.42 32.6 -30.68C32.6 -31.02 32.45 -31.33 32.15 -31.63C31.85 -31.93 31.56 -32.08 31.26 -32.08C30.96 -32.08 30.66 -31.93 30.36 -31.63L15.52 -16.39L15.52 -30.78C15.52 -31.65 15.08 -32.08 14.22 -32.08C13.36 -32.08 12.93 -31.65 12.93 -30.78L12.93 -1.3C12.93 -0.43 13.36 0 14.22 0C15.08 0 15.52 -0.43 15.52 -1.3L15.52 -12.65L19.25 -16.49L32.2 -0.4C32.5 -0.03 32.82 0.15 33.15 0.15C33.45 0.15 33.73 0.03 34 -0.2C34.36 -0.5 34.54 -0.83 34.54 -1.2Z M40.67 -0.35C40.9 -0.12 41.22 0 41.62 0C42.02 0 42.33 -0.12 42.56 -0.35C42.8 -0.58 42.91 -0.9 42.91 -1.3L42.91 -14.94L63.83 -14.94L63.83 -1.3C63.83 -0.9 63.95 -0.58 64.18 -0.35C64.41 -0.12 64.73 0 65.13 0C65.53 0 65.84 -0.12 66.07 -0.35C66.31 -0.58 66.42 -0.9 66.42 -1.3L66.42 -30.78C66.42 -31.18 66.31 -31.5 66.07 -31.73C65.84 -31.96 65.53 -32.08 65.13 -32.08C64.73 -32.08 64.41 -31.96 64.18 -31.73C63.95 -31.5 63.83 -31.18 63.83 -30.78L63.83 -17.53L42.91 -17.53L42.91 -30.78C42.91 -31.18 42.8 -31.5 42.56 -31.73C42.33 -31.96 42.02 -32.08 41.62 -32.08C41.22 -32.08 40.9 -31.96 40.67 -31.73C40.44 -31.5 40.32 -31.18 40.32 -30.78L40.32 -1.3C40.32 -0.9 40.44 -0.58 40.67 -0.35Z M98.1 -0.95C98.1 -1.18 98.02 -1.43 97.85 -1.69L90.48 -13.45C92.71 -13.75 94.39 -14.61 95.54 -16.04C96.68 -17.47 97.26 -19.44 97.26 -21.97L97.26 -23.46C97.26 -26.28 96.53 -28.43 95.06 -29.89C93.6 -31.35 91.46 -32.08 88.64 -32.08L76.98 -32.08C76.12 -32.08 75.69 -31.65 75.69 -30.78L75.69 -1.3C75.69 -0.43 76.12 0 76.98 0C77.85 0 78.28 -0.43 78.28 -1.3L78.28 -13.35L87.44 -13.35L95.66 -0.35C95.89 0.08 96.23 0.3 96.66 0.3C96.89 0.3 97.14 0.22 97.41 0.05C97.87 -0.22 98.1 -0.55 98.1 -0.95ZM78.28 -15.94L78.28 -29.49L88.64 -29.49C90.76 -29.49 92.3 -29.01 93.25 -28.04C94.19 -27.08 94.67 -25.55 94.67 -23.46L94.67 -21.97C94.67 -19.84 94.19 -18.31 93.25 -17.36C92.3 -16.41 90.76 -15.94 88.64 -15.94Z M129.83 -1.2C129.83 -1.39 129.78 -1.61 129.68 -1.84L117.33 -31.08C117.03 -31.75 116.55 -32.08 115.89 -32.08L115.79 -32.08C115.06 -32.08 114.56 -31.75 114.29 -31.08L101.94 -1.84C101.87 -1.71 101.84 -1.51 101.84 -1.25C101.84 -0.71 102.1 -0.35 102.64 -0.15C102.9 -0.05 103.12 0 103.28 0C103.78 0 104.15 -0.27 104.38 -0.8L107.72 -8.67L123.86 -8.67L124.01 -8.67L127.34 -0.8C127.54 -0.27 127.87 0 128.34 0C128.57 0 128.79 -0.05 128.99 -0.15C129.55 -0.42 129.83 -0.76 129.83 -1.2ZM108.76 -11.26L115.84 -27.99L122.91 -11.26Z M165.45 -30.78C165.45 -31.65 165.07 -32.08 164.3 -32.08C163.61 -32.08 163.09 -31.8 162.76 -31.23L150.65 -12.65L138.5 -31.23C138.17 -31.8 137.67 -32.08 137.01 -32.08C136.14 -32.08 135.71 -31.65 135.71 -30.78L135.71 -1.3C135.71 -0.43 136.14 0 137.01 0C137.87 0 138.3 -0.43 138.3 -1.3L138.3 -26.85L149.11 -10.36C149.48 -9.8 149.96 -9.51 150.55 -9.51C151.25 -9.51 151.77 -9.8 152.1 -10.36L162.86 -26.7L162.86 -1.3C162.86 -0.43 163.29 0 164.15 0C165.02 0 165.45 -0.43 165.45 -1.3Z M199.37 -1.2C199.37 -1.39 199.32 -1.61 199.22 -1.84L186.87 -31.08C186.57 -31.75 186.09 -32.08 185.42 -32.08L185.32 -32.08C184.59 -32.08 184.09 -31.75 183.83 -31.08L171.48 -1.84C171.41 -1.71 171.38 -1.51 171.38 -1.25C171.38 -0.71 171.64 -0.35 172.17 -0.15C172.44 -0.05 172.65 0 172.82 0C173.32 0 173.68 -0.27 173.92 -0.8L177.25 -8.67L193.39 -8.67L193.54 -8.67L196.88 -0.8C197.08 -0.27 197.41 0 197.88 0C198.11 0 198.32 -0.05 198.52 -0.15C199.09 -0.42 199.37 -0.76 199.37 -1.2ZM178.3 -11.26L185.37 -27.99L192.45 -11.26Z M231 -30.78C231 -31.65 230.57 -32.08 229.7 -32.08C228.84 -32.08 228.41 -31.65 228.41 -30.78L228.41 -4.93L207.89 -31.33C207.49 -31.83 207.04 -32.08 206.54 -32.08C205.68 -32.08 205.25 -31.65 205.25 -30.78L205.25 -1.3C205.25 -0.43 205.68 0 206.54 0C207.41 0 207.84 -0.43 207.84 -1.3L207.84 -27.2L228.41 -0.75C228.81 -0.25 229.24 0 229.7 0C230.57 0 231 -0.43 231 -1.3Z"></path></g><rect id="SvgjsRect27272" width="462" height="1.6603773584905661" fill="#ffffff" transform="translate(0, 41.09433962264151) scale(1)" light-content="false"></rect><g id="SvgjsG27273" class="text" transform="translate(230.33943396226414, 62.93169811320754) scale(1)" light-content="false" fill="#ffffff"><path d="M-72.23 -0.35C-72.23 -0.12 -72.11 0 -71.88 0C-71.65 0 -71.53 -0.12 -71.53 -0.35L-71.53 -4.98L-67.59 -4.98C-67.36 -4.98 -67.25 -5.1 -67.25 -5.33C-67.25 -5.56 -67.36 -5.68 -67.59 -5.68L-71.53 -5.68L-71.53 -9.81L-65.93 -9.81C-65.7 -9.81 -65.58 -9.93 -65.58 -10.16C-65.58 -10.39 -65.7 -10.51 -65.93 -10.51L-71.88 -10.51C-72.11 -10.51 -72.23 -10.39 -72.23 -10.16Z M-60.94 -7.31C-60.94 -7.54 -61.05 -7.65 -61.28 -7.65C-62.08 -7.65 -62.76 -7.49 -63.31 -7.16C-63.86 -6.84 -64.28 -6.36 -64.56 -5.74L-64.56 -7.31C-64.56 -7.54 -64.67 -7.65 -64.9 -7.65C-65.14 -7.65 -65.25 -7.54 -65.25 -7.31L-65.25 -0.35C-65.25 -0.12 -65.14 0 -64.9 0C-64.67 0 -64.56 -0.12 -64.56 -0.35L-64.56 -4.07C-64.54 -4.09 -64.54 -4.12 -64.54 -4.17C-64.48 -5.08 -64.18 -5.77 -63.62 -6.24C-63.06 -6.72 -62.28 -6.96 -61.28 -6.96C-61.05 -6.96 -60.94 -7.07 -60.94 -7.31Z M-59.08 -0.69C-58.61 -0.23 -57.88 0 -56.87 0L-55.51 0C-54.49 0 -53.75 -0.23 -53.29 -0.7C-52.83 -1.16 -52.6 -1.9 -52.6 -2.91L-52.6 -4.75C-52.6 -5.77 -52.83 -6.51 -53.29 -6.97C-53.75 -7.42 -54.49 -7.65 -55.51 -7.65L-56.87 -7.65C-57.88 -7.67 -58.61 -7.44 -59.08 -6.97C-59.54 -6.51 -59.77 -5.77 -59.77 -4.75L-59.77 -2.89C-59.77 -1.88 -59.54 -1.15 -59.08 -0.69ZM-55.51 -0.7L-56.87 -0.7C-57.68 -0.7 -58.25 -0.86 -58.58 -1.19C-58.91 -1.51 -59.08 -2.08 -59.08 -2.89L-59.08 -4.75C-59.08 -5.57 -58.91 -6.14 -58.58 -6.48C-58.25 -6.81 -57.68 -6.97 -56.87 -6.96L-55.51 -6.96C-54.69 -6.96 -54.11 -6.79 -53.79 -6.47C-53.46 -6.14 -53.3 -5.57 -53.3 -4.75L-53.3 -2.91C-53.3 -2.1 -53.46 -1.53 -53.79 -1.2C-54.11 -0.86 -54.69 -0.7 -55.51 -0.7Z M-43.46 -6.97C-43.92 -7.42 -44.66 -7.65 -45.68 -7.65L-46.14 -7.65C-47.59 -7.65 -48.57 -7.22 -49.08 -6.34L-49.08 -7.31C-49.08 -7.54 -49.2 -7.65 -49.43 -7.65C-49.66 -7.65 -49.78 -7.54 -49.78 -7.31L-49.78 -0.35C-49.78 -0.12 -49.66 0 -49.43 0C-49.2 0 -49.08 -0.12 -49.08 -0.35L-49.08 -5.05L-49.06 -5.15C-48.92 -6.35 -47.95 -6.96 -46.14 -6.96L-45.68 -6.96C-44.86 -6.96 -44.29 -6.79 -43.96 -6.47C-43.63 -6.14 -43.47 -5.57 -43.47 -4.75L-43.47 -0.35C-43.47 -0.12 -43.35 0 -43.12 0C-42.89 0 -42.77 -0.12 -42.77 -0.35L-42.77 -4.75C-42.77 -5.77 -43 -6.51 -43.46 -6.97Z M-36.48 -0.35C-36.48 -0.58 -36.6 -0.7 -36.84 -0.7C-37.65 -0.7 -38.21 -0.86 -38.53 -1.17C-38.84 -1.49 -39 -2.04 -39 -2.84L-39 -6.96L-36.86 -6.96C-36.63 -6.96 -36.51 -7.07 -36.51 -7.31C-36.51 -7.54 -36.63 -7.65 -36.86 -7.65L-39 -7.65L-39 -9.63C-39 -9.86 -39.12 -9.98 -39.35 -9.98C-39.58 -9.98 -39.7 -9.86 -39.7 -9.63L-39.7 -7.65L-40.75 -7.65C-40.98 -7.65 -41.09 -7.54 -41.09 -7.31C-41.09 -7.07 -40.98 -6.96 -40.75 -6.96L-39.7 -6.96L-39.7 -2.84C-39.7 -1.85 -39.47 -1.13 -39.02 -0.68C-38.57 -0.23 -37.84 0 -36.84 0C-36.6 0 -36.48 -0.12 -36.48 -0.35Z M-34.45 -3.57L-28.33 -3.57C-28.09 -3.57 -27.98 -3.69 -27.98 -3.92L-27.98 -4.75C-27.98 -5.77 -28.21 -6.51 -28.67 -6.97C-29.13 -7.42 -29.86 -7.65 -30.88 -7.65L-32.24 -7.65C-33.25 -7.67 -33.99 -7.44 -34.45 -6.97C-34.92 -6.51 -35.15 -5.77 -35.15 -4.75L-35.15 -2.89C-35.15 -1.88 -34.92 -1.15 -34.45 -0.69C-33.99 -0.23 -33.25 0 -32.24 0L-30.88 0C-29.95 0 -29.25 -0.16 -28.78 -0.49C-28.31 -0.82 -28.05 -1.33 -27.99 -2.04C-27.98 -2.15 -28.01 -2.24 -28.07 -2.31C-28.13 -2.37 -28.22 -2.41 -28.33 -2.41C-28.55 -2.41 -28.67 -2.29 -28.69 -2.06C-28.74 -1.56 -28.92 -1.21 -29.26 -1C-29.59 -0.8 -30.13 -0.7 -30.88 -0.7L-32.24 -0.7C-33.05 -0.7 -33.62 -0.86 -33.95 -1.19C-34.29 -1.51 -34.45 -2.08 -34.45 -2.89ZM-34.45 -4.27L-34.45 -4.75C-34.45 -5.57 -34.29 -6.14 -33.95 -6.48C-33.62 -6.81 -33.05 -6.97 -32.24 -6.96L-30.88 -6.96C-30.06 -6.96 -29.49 -6.79 -29.16 -6.47C-28.84 -6.14 -28.67 -5.57 -28.67 -4.75L-28.67 -4.27Z M-18.84 -6.97C-19.3 -7.42 -20.04 -7.65 -21.05 -7.65L-21.52 -7.65C-22.97 -7.65 -23.95 -7.22 -24.46 -6.34L-24.46 -7.31C-24.46 -7.54 -24.57 -7.65 -24.81 -7.65C-25.04 -7.65 -25.15 -7.54 -25.15 -7.31L-25.15 -0.35C-25.15 -0.12 -25.04 0 -24.81 0C-24.57 0 -24.46 -0.12 -24.46 -0.35L-24.46 -5.05L-24.44 -5.15C-24.3 -6.35 -23.32 -6.96 -21.52 -6.96L-21.05 -6.96C-20.23 -6.96 -19.66 -6.79 -19.34 -6.47C-19.01 -6.14 -18.85 -5.57 -18.85 -4.75L-18.85 -0.35C-18.85 -0.12 -18.73 0 -18.5 0C-18.26 0 -18.15 -0.12 -18.15 -0.35L-18.15 -4.75C-18.15 -5.77 -18.38 -6.51 -18.84 -6.97Z M-8.3 -11.11C-8.3 -11.34 -8.42 -11.46 -8.65 -11.46C-8.88 -11.46 -9 -11.34 -9 -11.11L-9 -7.65L-12.57 -7.65C-13.58 -7.65 -14.31 -7.42 -14.78 -6.97C-15.24 -6.51 -15.47 -5.77 -15.47 -4.75L-15.47 -2.91C-15.47 -1.9 -15.24 -1.16 -14.78 -0.7C-14.31 -0.23 -13.58 0 -12.57 0L-11.94 0C-11.17 0 -10.55 -0.11 -10.07 -0.32C-9.59 -0.53 -9.23 -0.84 -9 -1.26L-9 -0.35C-9 -0.12 -8.88 0 -8.65 0C-8.42 0 -8.3 -0.12 -8.3 -0.35ZM-9.77 -1.15C-10.29 -0.85 -11.01 -0.7 -11.94 -0.7L-12.57 -0.7C-13.38 -0.7 -13.95 -0.86 -14.28 -1.2C-14.61 -1.53 -14.78 -2.1 -14.78 -2.91L-14.78 -4.75C-14.78 -5.57 -14.61 -6.14 -14.28 -6.47C-13.95 -6.79 -13.38 -6.96 -12.57 -6.96L-9 -6.96L-9 -2.51C-9 -1.91 -9.26 -1.46 -9.77 -1.15Z M5.36 -11.11C5.36 -11.34 5.25 -11.46 5.01 -11.46C4.78 -11.46 4.67 -11.34 4.67 -11.11L4.67 -7.65L1.1 -7.65C0.09 -7.65 -0.65 -7.42 -1.11 -6.97C-1.58 -6.51 -1.81 -5.77 -1.81 -4.75L-1.81 -2.91C-1.81 -1.9 -1.58 -1.16 -1.11 -0.7C-0.65 -0.23 0.09 0 1.1 0L1.73 0C2.49 0 3.11 -0.11 3.59 -0.32C4.08 -0.53 4.43 -0.84 4.67 -1.26L4.67 -0.35C4.67 -0.12 4.78 0 5.01 0C5.25 0 5.36 -0.12 5.36 -0.35ZM3.89 -1.15C3.38 -0.85 2.66 -0.7 1.73 -0.7L1.1 -0.7C0.29 -0.7 -0.28 -0.86 -0.61 -1.2C-0.95 -1.53 -1.11 -2.1 -1.11 -2.91L-1.11 -4.75C-1.11 -5.57 -0.95 -6.14 -0.61 -6.47C-0.28 -6.79 0.29 -6.96 1.1 -6.96L4.67 -6.96L4.67 -2.51C4.67 -1.91 4.41 -1.46 3.89 -1.15Z M8.73 -3.57L14.86 -3.57C15.09 -3.57 15.21 -3.69 15.21 -3.92L15.21 -4.75C15.21 -5.77 14.98 -6.51 14.52 -6.97C14.06 -7.42 13.32 -7.65 12.3 -7.65L10.94 -7.65C9.93 -7.67 9.2 -7.44 8.73 -6.97C8.27 -6.51 8.04 -5.77 8.04 -4.75L8.04 -2.89C8.04 -1.88 8.27 -1.15 8.73 -0.69C9.2 -0.23 9.93 0 10.94 0L12.3 0C13.23 0 13.93 -0.16 14.4 -0.49C14.87 -0.82 15.14 -1.33 15.19 -2.04C15.2 -2.15 15.18 -2.24 15.12 -2.31C15.06 -2.37 14.97 -2.41 14.86 -2.41C14.64 -2.41 14.52 -2.29 14.5 -2.06C14.45 -1.56 14.26 -1.21 13.93 -1C13.6 -0.8 13.06 -0.7 12.3 -0.7L10.94 -0.7C10.13 -0.7 9.56 -0.86 9.23 -1.19C8.9 -1.51 8.73 -2.08 8.73 -2.89ZM8.73 -4.27L8.73 -4.75C8.73 -5.57 8.9 -6.14 9.23 -6.48C9.56 -6.81 10.13 -6.97 10.94 -6.96L12.3 -6.96C13.12 -6.96 13.7 -6.79 14.02 -6.47C14.35 -6.14 14.51 -5.57 14.51 -4.75L14.51 -4.27Z M24.04 -7.32C24.04 -7.46 23.96 -7.55 23.81 -7.62C23.77 -7.64 23.7 -7.65 23.63 -7.65C23.51 -7.65 23.41 -7.58 23.34 -7.44L20.19 -0.95L17.22 -7.44C17.15 -7.58 17.06 -7.65 16.94 -7.65C16.89 -7.65 16.84 -7.64 16.77 -7.62C16.61 -7.55 16.54 -7.46 16.54 -7.32L16.57 -7.17L19.74 -0.27C19.79 -0.18 19.84 -0.11 19.91 -0.07C19.97 -0.02 20.06 0 20.17 0C20.28 0 20.37 -0.02 20.44 -0.05C20.51 -0.08 20.57 -0.15 20.62 -0.27L23.99 -7.16C24.03 -7.22 24.04 -7.28 24.04 -7.32Z M26.07 -3.57L32.19 -3.57C32.43 -3.57 32.54 -3.69 32.54 -3.92L32.54 -4.75C32.54 -5.77 32.31 -6.51 31.85 -6.97C31.39 -7.42 30.66 -7.65 29.64 -7.65L28.28 -7.65C27.27 -7.67 26.53 -7.44 26.07 -6.97C25.6 -6.51 25.37 -5.77 25.37 -4.75L25.37 -2.89C25.37 -1.88 25.6 -1.15 26.07 -0.69C26.53 -0.23 27.27 0 28.28 0L29.64 0C30.57 0 31.27 -0.16 31.74 -0.49C32.21 -0.82 32.47 -1.33 32.53 -2.04C32.54 -2.15 32.51 -2.24 32.45 -2.31C32.39 -2.37 32.31 -2.41 32.19 -2.41C31.97 -2.41 31.85 -2.29 31.83 -2.06C31.79 -1.56 31.6 -1.21 31.26 -1C30.93 -0.8 30.39 -0.7 29.64 -0.7L28.28 -0.7C27.47 -0.7 26.9 -0.86 26.57 -1.19C26.23 -1.51 26.07 -2.08 26.07 -2.89ZM26.07 -4.27L26.07 -4.75C26.07 -5.57 26.23 -6.14 26.57 -6.48C26.9 -6.81 27.47 -6.97 28.28 -6.96L29.64 -6.96C30.46 -6.96 31.03 -6.79 31.36 -6.47C31.68 -6.14 31.85 -5.57 31.85 -4.75L31.85 -4.27Z M35.9 -0.52C36.25 -0.17 36.81 0 37.57 0C37.81 0 37.92 -0.12 37.92 -0.35C37.92 -0.58 37.8 -0.7 37.56 -0.7C36.99 -0.7 36.6 -0.8 36.39 -1.01C36.17 -1.22 36.06 -1.61 36.06 -2.18L36.06 -11.11C36.06 -11.34 35.95 -11.46 35.71 -11.46C35.48 -11.46 35.37 -11.34 35.37 -11.11L35.37 -2.18C35.37 -1.42 35.54 -0.87 35.9 -0.52Z M40.11 -0.69C40.58 -0.23 41.32 0 42.32 0L43.68 0C44.7 0 45.44 -0.23 45.9 -0.7C46.36 -1.16 46.59 -1.9 46.59 -2.91L46.59 -4.75C46.59 -5.77 46.36 -6.51 45.9 -6.97C45.44 -7.42 44.7 -7.65 43.68 -7.65L42.32 -7.65C41.32 -7.67 40.58 -7.44 40.11 -6.97C39.65 -6.51 39.42 -5.77 39.42 -4.75L39.42 -2.89C39.42 -1.88 39.65 -1.15 40.11 -0.69ZM43.68 -0.7L42.32 -0.7C41.51 -0.7 40.94 -0.86 40.61 -1.19C40.28 -1.51 40.11 -2.08 40.11 -2.89L40.11 -4.75C40.11 -5.57 40.28 -6.14 40.61 -6.48C40.94 -6.81 41.51 -6.97 42.32 -6.96L43.68 -6.96C44.5 -6.96 45.08 -6.79 45.4 -6.47C45.73 -6.14 45.89 -5.57 45.89 -4.75L45.89 -2.91C45.89 -2.1 45.73 -1.53 45.4 -1.2C45.08 -0.86 44.5 -0.7 43.68 -0.7Z M55.9 -6.97C55.44 -7.42 54.7 -7.65 53.68 -7.65L53.05 -7.65C52.29 -7.65 51.66 -7.55 51.18 -7.34C50.7 -7.13 50.34 -6.81 50.11 -6.39L50.11 -7.31C50.11 -7.54 49.99 -7.65 49.76 -7.65C49.53 -7.65 49.41 -7.54 49.41 -7.31L49.41 2.97C49.41 3.2 49.53 3.32 49.76 3.32C49.99 3.32 50.11 3.2 50.11 2.97L50.11 0L53.68 0C54.7 0 55.44 -0.23 55.9 -0.7C56.36 -1.16 56.59 -1.9 56.59 -2.91L56.59 -4.75C56.59 -5.77 56.36 -6.51 55.9 -6.97ZM55.89 -4.75L55.89 -2.91C55.89 -2.1 55.73 -1.53 55.4 -1.2C55.07 -0.86 54.5 -0.7 53.68 -0.7L50.11 -0.7L50.11 -5.05L50.13 -5.15C50.27 -6.35 51.24 -6.96 53.05 -6.96L53.68 -6.96C54.5 -6.96 55.07 -6.79 55.4 -6.47C55.73 -6.14 55.89 -5.57 55.89 -4.75Z M59.94 -3.57L66.07 -3.57C66.3 -3.57 66.42 -3.69 66.42 -3.92L66.42 -4.75C66.42 -5.77 66.19 -6.51 65.73 -6.97C65.27 -7.42 64.53 -7.65 63.51 -7.65L62.15 -7.65C61.14 -7.67 60.4 -7.44 59.94 -6.97C59.47 -6.51 59.24 -5.77 59.24 -4.75L59.24 -2.89C59.24 -1.88 59.47 -1.15 59.94 -0.69C60.4 -0.23 61.14 0 62.15 0L63.51 0C64.44 0 65.14 -0.16 65.61 -0.49C66.08 -0.82 66.34 -1.33 66.4 -2.04C66.41 -2.15 66.38 -2.24 66.32 -2.31C66.26 -2.37 66.18 -2.41 66.07 -2.41C65.85 -2.41 65.72 -2.29 65.7 -2.06C65.66 -1.56 65.47 -1.21 65.14 -1C64.8 -0.8 64.26 -0.7 63.51 -0.7L62.15 -0.7C61.34 -0.7 60.77 -0.86 60.44 -1.19C60.11 -1.51 59.94 -2.08 59.94 -2.89ZM59.94 -4.27L59.94 -4.75C59.94 -5.57 60.11 -6.14 60.44 -6.48C60.77 -6.81 61.34 -6.97 62.15 -6.96L63.51 -6.96C64.33 -6.96 64.9 -6.79 65.23 -6.47C65.55 -6.14 65.72 -5.57 65.72 -4.75L65.72 -4.27Z M73.55 -7.31C73.55 -7.54 73.44 -7.65 73.21 -7.65C72.41 -7.65 71.73 -7.49 71.18 -7.16C70.63 -6.84 70.21 -6.36 69.94 -5.74L69.94 -7.31C69.94 -7.54 69.82 -7.65 69.59 -7.65C69.35 -7.65 69.24 -7.54 69.24 -7.31L69.24 -0.35C69.24 -0.12 69.35 0 69.59 0C69.82 0 69.94 -0.12 69.94 -0.35L69.94 -4.07C69.95 -4.09 69.95 -4.12 69.95 -4.17C70.01 -5.08 70.31 -5.77 70.87 -6.24C71.43 -6.72 72.21 -6.96 73.21 -6.96C73.44 -6.96 73.55 -7.07 73.55 -7.31Z"></path></g></g></svg>